<?xml version="1.0" encoding="UTF-8" standalone="no"?>
<!DOCTYPE svg PUBLIC "-//W3C//DTD SVG 1.1//EN"
 "http://www.w3.org/Graphics/SVG/1.1/DTD/svg11.dtd">
<!-- Generated by graphviz version 2.40.1 (20161225.0304)
 -->
<!-- Title: G Pages: 1 -->
<svg width="1925pt" height="818pt"
 viewBox="0.00 0.00 1925.00 818.00" xmlns="http://www.w3.org/2000/svg" xmlns:xlink="http://www.w3.org/1999/xlink">
<g id="graph0" class="graph" transform="scale(1 1) rotate(0) translate(4 814)">
<title>G</title>
<polygon fill="#ffffff" stroke="transparent" points="-4,4 -4,-814 1921,-814 1921,4 -4,4"/>
<!-- node0000 -->
<g id="node1" class="node">
<title>node0000</title>
<ellipse fill="none" stroke="#000000" cx="817" cy="-774" rx="36" ry="36"/>
<text text-anchor="middle" x="817" y="-771.5" font-family="Times,serif" font-size="10.00" fill="#000000">Thing</text>
</g>
<!-- node0001 -->
<g id="node2" class="node">
<title>node0001</title>
<ellipse fill="none" stroke="#000000" cx="1209" cy="-528" rx="36" ry="36"/>
<text text-anchor="middle" x="1209" y="-525.5" font-family="Times,serif" font-size="10.00" fill="#000000">OCSE_Entity</text>
</g>
<!-- node0001&#45;&gt;node0000 -->
<g id="edge1" class="edge">
<title>node0001&#45;&gt;node0000</title>
<path fill="none" stroke="#000000" d="M1178.2404,-547.3032C1107.6812,-591.5827 934.2699,-700.4071 856.2061,-749.3962"/>
<polygon fill="#000000" stroke="#000000" points="854.2265,-746.5063 847.6167,-754.7865 857.9474,-752.4355 854.2265,-746.5063"/>
<text text-anchor="middle" x="1073.5" y="-647.3" font-family="Times,serif" font-size="14.00" fill="#000000">is a</text>
</g>
<!-- node0002 -->
<g id="node3" class="node">
<title>node0002</title>
<ellipse fill="none" stroke="#000000" cx="779" cy="-651" rx="36" ry="36"/>
<text text-anchor="middle" x="779" y="-654" font-family="Times,serif" font-size="10.00" fill="#000000">Mathematical_</text>
<text text-anchor="middle" x="779" y="-643" font-family="Times,serif" font-size="10.00" fill="#000000">Object</text>
</g>
<!-- node0002&#45;&gt;node0000 -->
<g id="edge2" class="edge">
<title>node0002&#45;&gt;node0000</title>
<path fill="none" stroke="#000000" d="M789.6862,-685.5897C793.8956,-699.2145 798.783,-715.0344 803.2502,-729.4942"/>
<polygon fill="#000000" stroke="#000000" points="799.9664,-730.7225 806.2623,-739.2438 806.6545,-728.6562 799.9664,-730.7225"/>
<text text-anchor="middle" x="810.5" y="-708.8" font-family="Times,serif" font-size="14.00" fill="#000000">is a</text>
</g>
<!-- node0003 -->
<g id="node4" class="node">
<title>node0003</title>
<ellipse fill="none" stroke="#000000" cx="306" cy="-405" rx="36" ry="36"/>
<text text-anchor="middle" x="306" y="-408" font-family="Times,serif" font-size="10.00" fill="#000000">Mathematical_</text>
<text text-anchor="middle" x="306" y="-397" font-family="Times,serif" font-size="10.00" fill="#000000">Model</text>
</g>
<!-- node0003&#45;&gt;node0001 -->
<g id="edge3" class="edge">
<title>node0003&#45;&gt;node0001</title>
<path fill="none" stroke="#000000" d="M340.2851,-416.7814C388.469,-432.7765 479.2618,-460.8708 559,-474 690.3607,-495.6291 725.3088,-481.2061 858,-492 967.535,-500.9102 1095.9265,-515.0119 1162.9521,-522.6529"/>
<polygon fill="#000000" stroke="#000000" points="1162.8371,-526.1625 1173.1701,-523.822 1163.6328,-519.2079 1162.8371,-526.1625"/>
<text text-anchor="middle" x="568.5" y="-462.8" font-family="Times,serif" font-size="14.00" fill="#000000">is a</text>
</g>
<!-- node0004 -->
<g id="node5" class="node">
<title>node0004</title>
<ellipse fill="none" stroke="#000000" cx="1209" cy="-405" rx="36" ry="36"/>
<text text-anchor="middle" x="1209" y="-408" font-family="Times,serif" font-size="10.00" fill="#000000">Mathematical_</text>
<text text-anchor="middle" x="1209" y="-397" font-family="Times,serif" font-size="10.00" fill="#000000">Quantity</text>
</g>
<!-- node0004&#45;&gt;node0001 -->
<g id="edge4" class="edge">
<title>node0004&#45;&gt;node0001</title>
<path fill="none" stroke="#000000" d="M1209,-441.2388C1209,-453.7639 1209,-467.9809 1209,-481.229"/>
<polygon fill="#000000" stroke="#000000" points="1205.5001,-481.5952 1209,-491.5952 1212.5001,-481.5952 1205.5001,-481.5952"/>
<text text-anchor="middle" x="1218.5" y="-462.8" font-family="Times,serif" font-size="14.00" fill="#000000">is a</text>
</g>
<!-- node0005 -->
<g id="node6" class="node">
<title>node0005</title>
<ellipse fill="none" stroke="#000000" cx="1320" cy="-405" rx="36" ry="36"/>
<text text-anchor="middle" x="1320" y="-408" font-family="Times,serif" font-size="10.00" fill="#000000">Dynamical_</text>
<text text-anchor="middle" x="1320" y="-397" font-family="Times,serif" font-size="10.00" fill="#000000">Behavior</text>
</g>
<!-- node0005&#45;&gt;node0001 -->
<g id="edge5" class="edge">
<title>node0005&#45;&gt;node0001</title>
<path fill="none" stroke="#000000" d="M1295.6406,-431.9929C1279.3022,-450.0975 1257.6405,-474.1011 1240.0641,-493.5777"/>
<polygon fill="#000000" stroke="#000000" points="1237.4039,-491.3013 1233.3026,-501.0701 1242.6007,-495.991 1237.4039,-491.3013"/>
<text text-anchor="middle" x="1280.5" y="-462.8" font-family="Times,serif" font-size="14.00" fill="#000000">is a</text>
</g>
<!-- node0006 -->
<g id="node7" class="node">
<title>node0006</title>
<ellipse fill="none" stroke="#000000" cx="1420" cy="-405" rx="36" ry="36"/>
<text text-anchor="middle" x="1420" y="-408" font-family="Times,serif" font-size="10.00" fill="#000000">Dynamical_</text>
<text text-anchor="middle" x="1420" y="-397" font-family="Times,serif" font-size="10.00" fill="#000000">System</text>
</g>
<!-- node0006&#45;&gt;node0001 -->
<g id="edge6" class="edge">
<title>node0006&#45;&gt;node0001</title>
<path fill="none" stroke="#000000" d="M1389.986,-425.195C1381.9427,-430.4554 1373.2017,-436.0373 1365,-441 1326.605,-464.2321 1281.7681,-488.9997 1250.0418,-506.1428"/>
<polygon fill="#000000" stroke="#000000" points="1248.1922,-503.1636 1241.0485,-510.9878 1251.5123,-509.3262 1248.1922,-503.1636"/>
<text text-anchor="middle" x="1340.5" y="-462.8" font-family="Times,serif" font-size="14.00" fill="#000000">is a</text>
</g>
<!-- node0007 -->
<g id="node8" class="node">
<title>node0007</title>
<ellipse fill="none" stroke="#000000" cx="1515" cy="-405" rx="36" ry="36"/>
<text text-anchor="middle" x="1515" y="-402.5" font-family="Times,serif" font-size="10.00" fill="#000000">Control_Law</text>
</g>
<!-- node0007&#45;&gt;node0001 -->
<g id="edge7" class="edge">
<title>node0007&#45;&gt;node0001</title>
<path fill="none" stroke="#000000" d="M1486.8533,-427.4675C1479.9553,-432.3434 1472.4165,-437.1783 1465,-441 1394.9773,-477.0825 1306.7528,-503.2438 1254.2786,-516.9861"/>
<polygon fill="#000000" stroke="#000000" points="1253.0841,-513.6797 1244.2765,-519.5683 1254.8339,-520.4575 1253.0841,-513.6797"/>
<text text-anchor="middle" x="1434.5" y="-462.8" font-family="Times,serif" font-size="14.00" fill="#000000">is a</text>
</g>
<!-- node0008 -->
<g id="node9" class="node">
<title>node0008</title>
<ellipse fill="none" stroke="#000000" cx="1026" cy="-405" rx="36" ry="36"/>
<text text-anchor="middle" x="1026" y="-402.5" font-family="Times,serif" font-size="10.00" fill="#000000">Signal_Type</text>
</g>
<!-- node0008&#45;&gt;node0001 -->
<g id="edge8" class="edge">
<title>node0008&#45;&gt;node0001</title>
<path fill="none" stroke="#000000" d="M1056.2187,-425.3109C1087.5703,-446.3833 1136.6864,-479.3958 1170.7301,-502.2776"/>
<polygon fill="#000000" stroke="#000000" points="1168.7886,-505.1897 1179.0405,-507.8633 1172.6934,-499.3801 1168.7886,-505.1897"/>
<text text-anchor="middle" x="1137.5" y="-462.8" font-family="Times,serif" font-size="14.00" fill="#000000">is a</text>
</g>
<!-- node0009 -->
<g id="node10" class="node">
<title>node0009</title>
<ellipse fill="none" stroke="#000000" cx="813" cy="-528" rx="36" ry="36"/>
<text text-anchor="middle" x="813" y="-531" font-family="Times,serif" font-size="10.00" fill="#000000">Mathematical_</text>
<text text-anchor="middle" x="813" y="-520" font-family="Times,serif" font-size="10.00" fill="#000000">Function</text>
</g>
<!-- node0009&#45;&gt;node0002 -->
<g id="edge9" class="edge">
<title>node0009&#45;&gt;node0002</title>
<path fill="none" stroke="#000000" d="M803.3479,-562.9179C799.6153,-576.4213 795.2974,-592.0418 791.3436,-606.3452"/>
<polygon fill="#000000" stroke="#000000" points="787.9671,-605.4238 788.6762,-615.9948 794.7141,-607.2888 787.9671,-605.4238"/>
<text text-anchor="middle" x="808.5" y="-585.8" font-family="Times,serif" font-size="14.00" fill="#000000">is a</text>
</g>
<!-- node0010 -->
<g id="node11" class="node">
<title>node0010</title>
<ellipse fill="none" stroke="#000000" cx="679" cy="-528" rx="36" ry="36"/>
<text text-anchor="middle" x="679" y="-525.5" font-family="Times,serif" font-size="10.00" fill="#000000">Singularity</text>
</g>
<!-- node0010&#45;&gt;node0002 -->
<g id="edge10" class="edge">
<title>node0010&#45;&gt;node0002</title>
<path fill="none" stroke="#000000" d="M701.942,-556.2187C716.1703,-573.7195 734.5819,-596.3658 749.84,-615.1332"/>
<polygon fill="#000000" stroke="#000000" points="747.1407,-617.3613 756.1647,-622.9126 752.5721,-612.9455 747.1407,-617.3613"/>
<text text-anchor="middle" x="744.5" y="-585.8" font-family="Times,serif" font-size="14.00" fill="#000000">is a</text>
</g>
<!-- node0011 -->
<g id="node12" class="node">
<title>node0011</title>
<ellipse fill="none" stroke="#000000" cx="589" cy="-528" rx="36" ry="36"/>
<text text-anchor="middle" x="589" y="-531" font-family="Times,serif" font-size="10.00" fill="#000000">Mapping_</text>
<text text-anchor="middle" x="589" y="-520" font-family="Times,serif" font-size="10.00" fill="#000000">Property</text>
</g>
<!-- node0011&#45;&gt;node0002 -->
<g id="edge11" class="edge">
<title>node0011&#45;&gt;node0002</title>
<path fill="none" stroke="#000000" d="M617.1243,-551.4454C622.6209,-555.7555 628.4143,-560.1161 634,-564 668.1851,-587.7697 708.9974,-611.9051 738.6012,-628.7052"/>
<polygon fill="#000000" stroke="#000000" points="736.9798,-631.809 747.409,-633.675 740.4198,-625.7125 736.9798,-631.809"/>
<text text-anchor="middle" x="694.5" y="-585.8" font-family="Times,serif" font-size="14.00" fill="#000000">is a</text>
</g>
<!-- node0012 -->
<g id="node13" class="node">
<title>node0012</title>
<ellipse fill="none" stroke="#000000" cx="36" cy="-282" rx="36" ry="36"/>
<text text-anchor="middle" x="36" y="-279.5" font-family="Times,serif" font-size="10.00" fill="#000000">DAE_System</text>
</g>
<!-- node0012&#45;&gt;node0003 -->
<g id="edge12" class="edge">
<title>node0012&#45;&gt;node0003</title>
<path fill="none" stroke="#000000" d="M63.1314,-305.8683C68.8132,-310.2353 74.9287,-314.5089 81,-318 139.8549,-351.8428 214.392,-377.7101 261.1514,-392.1324"/>
<polygon fill="#000000" stroke="#000000" points="260.3928,-395.5599 270.9786,-395.1209 262.4295,-388.8627 260.3928,-395.5599"/>
<text text-anchor="middle" x="156.5" y="-339.8" font-family="Times,serif" font-size="14.00" fill="#000000">is a</text>
</g>
<!-- node0013 -->
<g id="node14" class="node">
<title>node0013</title>
<ellipse fill="none" stroke="#000000" cx="126" cy="-282" rx="36" ry="36"/>
<text text-anchor="middle" x="126" y="-279.5" font-family="Times,serif" font-size="10.00" fill="#000000">ODE_System</text>
</g>
<!-- node0013&#45;&gt;node0003 -->
<g id="edge13" class="edge">
<title>node0013&#45;&gt;node0003</title>
<path fill="none" stroke="#000000" d="M154.2261,-305.3015C159.7133,-309.6248 165.4772,-314.0271 171,-318 202.2156,-340.4552 238.9772,-363.965 266.2503,-380.8763"/>
<polygon fill="#000000" stroke="#000000" points="264.766,-384.0732 275.1139,-386.3474 268.4428,-378.1166 264.766,-384.0732"/>
<text text-anchor="middle" x="228.5" y="-339.8" font-family="Times,serif" font-size="14.00" fill="#000000">is a</text>
</g>
<!-- node0014 -->
<g id="node15" class="node">
<title>node0014</title>
<ellipse fill="none" stroke="#000000" cx="216" cy="-282" rx="36" ry="36"/>
<text text-anchor="middle" x="216" y="-279.5" font-family="Times,serif" font-size="10.00" fill="#000000">PDE_System</text>
</g>
<!-- node0014&#45;&gt;node0003 -->
<g id="edge14" class="edge">
<title>node0014&#45;&gt;node0003</title>
<path fill="none" stroke="#000000" d="M237.3287,-311.1493C249.5686,-327.8771 265.0748,-349.0689 278.2541,-367.0805"/>
<polygon fill="#000000" stroke="#000000" points="275.7827,-369.6302 284.5125,-375.6337 281.4319,-365.4966 275.7827,-369.6302"/>
<text text-anchor="middle" x="276.5" y="-339.8" font-family="Times,serif" font-size="14.00" fill="#000000">is a</text>
</g>
<!-- node0015 -->
<g id="node16" class="node">
<title>node0015</title>
<ellipse fill="none" stroke="#000000" cx="306" cy="-282" rx="36" ry="36"/>
<text text-anchor="middle" x="306" y="-279.5" font-family="Times,serif" font-size="10.00" fill="#000000">ODE_PDE_System</text>
</g>
<!-- node0015&#45;&gt;node0003 -->
<g id="edge15" class="edge">
<title>node0015&#45;&gt;node0003</title>
<path fill="none" stroke="#000000" d="M306,-318.2388C306,-330.7639 306,-344.9809 306,-358.229"/>
<polygon fill="#000000" stroke="#000000" points="302.5001,-358.5952 306,-368.5952 309.5001,-358.5952 302.5001,-358.5952"/>
<text text-anchor="middle" x="315.5" y="-339.8" font-family="Times,serif" font-size="14.00" fill="#000000">is a</text>
</g>
<!-- node0016 -->
<g id="node17" class="node">
<title>node0016</title>
<ellipse fill="none" stroke="#000000" cx="396" cy="-282" rx="36" ry="36"/>
<text text-anchor="middle" x="396" y="-290.5" font-family="Times,serif" font-size="10.00" fill="#000000">DC_</text>
<text text-anchor="middle" x="396" y="-279.5" font-family="Times,serif" font-size="10.00" fill="#000000">Hybrid_</text>
<text text-anchor="middle" x="396" y="-268.5" font-family="Times,serif" font-size="10.00" fill="#000000">System</text>
</g>
<!-- node0016&#45;&gt;node0003 -->
<g id="edge16" class="edge">
<title>node0016&#45;&gt;node0003</title>
<path fill="none" stroke="#000000" d="M374.6713,-311.1493C362.4314,-327.8771 346.9252,-349.0689 333.7459,-367.0805"/>
<polygon fill="#000000" stroke="#000000" points="330.5681,-365.4966 327.4875,-375.6337 336.2173,-369.6302 330.5681,-365.4966"/>
<text text-anchor="middle" x="366.5" y="-339.8" font-family="Times,serif" font-size="14.00" fill="#000000">is a</text>
</g>
<!-- node0017 -->
<g id="node18" class="node">
<title>node0017</title>
<ellipse fill="none" stroke="#000000" cx="486" cy="-282" rx="36" ry="36"/>
<text text-anchor="middle" x="486" y="-285" font-family="Times,serif" font-size="10.00" fill="#000000">Transfer_</text>
<text text-anchor="middle" x="486" y="-274" font-family="Times,serif" font-size="10.00" fill="#000000">Function</text>
</g>
<!-- node0017&#45;&gt;node0003 -->
<g id="edge17" class="edge">
<title>node0017&#45;&gt;node0003</title>
<path fill="none" stroke="#000000" d="M457.7739,-305.3015C452.2867,-309.6248 446.5228,-314.0271 441,-318 409.7844,-340.4552 373.0228,-363.965 345.7497,-380.8763"/>
<polygon fill="#000000" stroke="#000000" points="343.5572,-378.1166 336.8861,-386.3474 347.234,-384.0732 343.5572,-378.1166"/>
<text text-anchor="middle" x="422.5" y="-339.8" font-family="Times,serif" font-size="14.00" fill="#000000">is a</text>
</g>
<!-- node0018 -->
<g id="node19" class="node">
<title>node0018</title>
<ellipse fill="none" stroke="#000000" cx="1206" cy="-282" rx="36" ry="36"/>
<text text-anchor="middle" x="1206" y="-285" font-family="Times,serif" font-size="10.00" fill="#000000">System_</text>
<text text-anchor="middle" x="1206" y="-274" font-family="Times,serif" font-size="10.00" fill="#000000">Quantity</text>
</g>
<!-- node0018&#45;&gt;node0004 -->
<g id="edge18" class="edge">
<title>node0018&#45;&gt;node0004</title>
<path fill="none" stroke="#000000" d="M1206.8839,-318.2388C1207.1894,-330.7639 1207.5361,-344.9809 1207.8592,-358.229"/>
<polygon fill="#000000" stroke="#000000" points="1204.3692,-358.6835 1208.1121,-368.5952 1211.3671,-358.5128 1204.3692,-358.6835"/>
<text text-anchor="middle" x="1216.5" y="-339.8" font-family="Times,serif" font-size="14.00" fill="#000000">is a</text>
</g>
<!-- node0019 -->
<g id="node20" class="node">
<title>node0019</title>
<ellipse fill="none" stroke="#000000" cx="1296" cy="-282" rx="36" ry="36"/>
<text text-anchor="middle" x="1296" y="-285" font-family="Times,serif" font-size="10.00" fill="#000000">External_</text>
<text text-anchor="middle" x="1296" y="-274" font-family="Times,serif" font-size="10.00" fill="#000000">Quantity</text>
</g>
<!-- node0019&#45;&gt;node0004 -->
<g id="edge19" class="edge">
<title>node0019&#45;&gt;node0004</title>
<path fill="none" stroke="#000000" d="M1275.1613,-311.4616C1263.4107,-328.0745 1248.5994,-349.0147 1235.9711,-366.8684"/>
<polygon fill="#000000" stroke="#000000" points="1232.8874,-365.1672 1229.9702,-375.3525 1238.6023,-369.2095 1232.8874,-365.1672"/>
<text text-anchor="middle" x="1266.5" y="-339.8" font-family="Times,serif" font-size="14.00" fill="#000000">is a</text>
</g>
<!-- node0020 -->
<g id="node21" class="node">
<title>node0020</title>
<ellipse fill="none" stroke="#000000" cx="1386" cy="-282" rx="36" ry="36"/>
<text text-anchor="middle" x="1386" y="-279.5" font-family="Times,serif" font-size="10.00" fill="#000000">Convergence</text>
</g>
<!-- node0020&#45;&gt;node0005 -->
<g id="edge20" class="edge">
<title>node0020&#45;&gt;node0005</title>
<path fill="none" stroke="#000000" d="M1368.8316,-313.9957C1360.5816,-329.3707 1350.6016,-347.9698 1341.8195,-364.3363"/>
<polygon fill="#000000" stroke="#000000" points="1338.7266,-362.698 1337.0825,-373.1645 1344.8948,-366.0077 1338.7266,-362.698"/>
<text text-anchor="middle" x="1365.5" y="-339.8" font-family="Times,serif" font-size="14.00" fill="#000000">is a</text>
</g>
<!-- node0021 -->
<g id="node22" class="node">
<title>node0021</title>
<ellipse fill="none" stroke="#000000" cx="1476" cy="-282" rx="36" ry="36"/>
<text text-anchor="middle" x="1476" y="-279.5" font-family="Times,serif" font-size="10.00" fill="#000000">Plant</text>
</g>
<!-- node0021&#45;&gt;node0006 -->
<g id="edge21" class="edge">
<title>node0021&#45;&gt;node0006</title>
<path fill="none" stroke="#000000" d="M1460.993,-314.9617C1454.3392,-329.5763 1446.4277,-346.9535 1439.338,-362.5256"/>
<polygon fill="#000000" stroke="#000000" points="1436.0067,-361.3959 1435.0484,-371.9473 1442.3775,-364.2964 1436.0067,-361.3959"/>
<text text-anchor="middle" x="1460.5" y="-339.8" font-family="Times,serif" font-size="14.00" fill="#000000">is a</text>
</g>
<!-- node0022 -->
<g id="node23" class="node">
<title>node0022</title>
<ellipse fill="none" stroke="#000000" cx="1701" cy="-282" rx="36" ry="36"/>
<text text-anchor="middle" x="1701" y="-279.5" font-family="Times,serif" font-size="10.00" fill="#000000">Controller</text>
</g>
<!-- node0022&#45;&gt;node0007 -->
<g id="edge22" class="edge">
<title>node0022&#45;&gt;node0007</title>
<path fill="none" stroke="#000000" d="M1670.7019,-302.0358C1638.8162,-323.1215 1588.5239,-356.3794 1553.7664,-379.3642"/>
<polygon fill="#000000" stroke="#000000" points="1551.6957,-376.5374 1545.2851,-384.9727 1555.5569,-382.3762 1551.6957,-376.5374"/>
<text text-anchor="middle" x="1628.5" y="-339.8" font-family="Times,serif" font-size="14.00" fill="#000000">is a</text>
</g>
<!-- node0023 -->
<g id="node24" class="node">
<title>node0023</title>
<ellipse fill="none" stroke="#000000" cx="846" cy="-282" rx="36" ry="36"/>
<text text-anchor="middle" x="846" y="-279.5" font-family="Times,serif" font-size="10.00" fill="#000000">Step_Function</text>
</g>
<!-- node0023&#45;&gt;node0008 -->
<g id="edge23" class="edge">
<title>node0023&#45;&gt;node0008</title>
<path fill="none" stroke="#000000" d="M867.1453,-311.2272C878.6502,-325.1685 893.9952,-340.9573 911,-351 938.6597,-367.3353 952.2619,-354.6465 981,-369 984.3285,-370.6624 987.6395,-372.6016 990.868,-374.7019"/>
<polygon fill="#000000" stroke="#000000" points="988.9862,-377.6576 999.1761,-380.5588 993.0195,-371.9363 988.9862,-377.6576"/>
<text text-anchor="middle" x="920.5" y="-339.8" font-family="Times,serif" font-size="14.00" fill="#000000">is a</text>
</g>
<!-- node0027 -->
<g id="node28" class="node">
<title>node0027</title>
<ellipse fill="none" stroke="#000000" cx="936" cy="-405" rx="36" ry="36"/>
<text text-anchor="middle" x="936" y="-413.5" font-family="Times,serif" font-size="10.00" fill="#000000">SISO_</text>
<text text-anchor="middle" x="936" y="-402.5" font-family="Times,serif" font-size="10.00" fill="#000000">Mathematical_</text>
<text text-anchor="middle" x="936" y="-391.5" font-family="Times,serif" font-size="10.00" fill="#000000">Function</text>
</g>
<!-- node0023&#45;&gt;node0027 -->
<g id="edge24" class="edge">
<title>node0023&#45;&gt;node0027</title>
<path fill="none" stroke="#000000" d="M841.0235,-317.7284C841.1727,-329.2224 843.356,-341.4433 850,-351 861.3599,-367.3402 873.974,-358.6963 891,-369 894.1831,-370.9263 897.3909,-373.0526 900.5492,-375.2802"/>
<polygon fill="#000000" stroke="#000000" points="898.6227,-378.2087 908.7426,-381.3454 902.7875,-372.5825 898.6227,-378.2087"/>
<text text-anchor="middle" x="859.5" y="-339.8" font-family="Times,serif" font-size="14.00" fill="#000000">is a</text>
</g>
<!-- node0024 -->
<g id="node25" class="node">
<title>node0024</title>
<ellipse fill="none" stroke="#000000" cx="936" cy="-282" rx="36" ry="36"/>
<text text-anchor="middle" x="936" y="-285" font-family="Times,serif" font-size="10.00" fill="#000000">Dirac_</text>
<text text-anchor="middle" x="936" y="-274" font-family="Times,serif" font-size="10.00" fill="#000000">Distribution</text>
</g>
<!-- node0024&#45;&gt;node0008 -->
<g id="edge25" class="edge">
<title>node0024&#45;&gt;node0008</title>
<path fill="none" stroke="#000000" d="M931.0235,-317.7284C931.1727,-329.2224 933.356,-341.4433 940,-351 951.3599,-367.3402 963.974,-358.6963 981,-369 984.1831,-370.9263 987.3909,-373.0526 990.5492,-375.2802"/>
<polygon fill="#000000" stroke="#000000" points="988.6227,-378.2087 998.7426,-381.3454 992.7875,-372.5825 988.6227,-378.2087"/>
<text text-anchor="middle" x="949.5" y="-339.8" font-family="Times,serif" font-size="14.00" fill="#000000">is a</text>
</g>
<!-- node0025 -->
<g id="node26" class="node">
<title>node0025</title>
<ellipse fill="none" stroke="#000000" cx="1026" cy="-282" rx="36" ry="36"/>
<text text-anchor="middle" x="1026" y="-285" font-family="Times,serif" font-size="10.00" fill="#000000">Harmonic_</text>
<text text-anchor="middle" x="1026" y="-274" font-family="Times,serif" font-size="10.00" fill="#000000">Function</text>
</g>
<!-- node0025&#45;&gt;node0008 -->
<g id="edge26" class="edge">
<title>node0025&#45;&gt;node0008</title>
<path fill="none" stroke="#000000" d="M1026,-318.2388C1026,-330.7639 1026,-344.9809 1026,-358.229"/>
<polygon fill="#000000" stroke="#000000" points="1022.5001,-358.5952 1026,-368.5952 1029.5001,-358.5952 1022.5001,-358.5952"/>
<text text-anchor="middle" x="1035.5" y="-339.8" font-family="Times,serif" font-size="14.00" fill="#000000">is a</text>
</g>
<!-- node0025&#45;&gt;node0027 -->
<g id="edge27" class="edge">
<title>node0025&#45;&gt;node0027</title>
<path fill="none" stroke="#000000" d="M1004.6713,-311.1493C992.4314,-327.8771 976.9252,-349.0689 963.7459,-367.0805"/>
<polygon fill="#000000" stroke="#000000" points="960.5681,-365.4966 957.4875,-375.6337 966.2173,-369.6302 960.5681,-365.4966"/>
<text text-anchor="middle" x="996.5" y="-339.8" font-family="Times,serif" font-size="14.00" fill="#000000">is a</text>
</g>
<!-- node0026 -->
<g id="node27" class="node">
<title>node0026</title>
<ellipse fill="none" stroke="#000000" cx="1116" cy="-282" rx="36" ry="36"/>
<text text-anchor="middle" x="1116" y="-279.5" font-family="Times,serif" font-size="10.00" fill="#000000">Noise</text>
</g>
<!-- node0026&#45;&gt;node0008 -->
<g id="edge28" class="edge">
<title>node0026&#45;&gt;node0008</title>
<path fill="none" stroke="#000000" d="M1094.6713,-311.1493C1082.4314,-327.8771 1066.9252,-349.0689 1053.7459,-367.0805"/>
<polygon fill="#000000" stroke="#000000" points="1050.5681,-365.4966 1047.4875,-375.6337 1056.2173,-369.6302 1050.5681,-365.4966"/>
<text text-anchor="middle" x="1085.5" y="-339.8" font-family="Times,serif" font-size="14.00" fill="#000000">is a</text>
</g>
<!-- node0027&#45;&gt;node0009 -->
<g id="edge29" class="edge">
<title>node0027&#45;&gt;node0009</title>
<path fill="none" stroke="#000000" d="M910.5143,-430.4857C891.8387,-449.1613 866.3219,-474.6781 846.0748,-494.9252"/>
<polygon fill="#000000" stroke="#000000" points="843.4724,-492.5778 838.8762,-502.1238 848.4222,-497.5276 843.4724,-492.5778"/>
<text text-anchor="middle" x="891.5" y="-462.8" font-family="Times,serif" font-size="14.00" fill="#000000">is a</text>
</g>
<!-- node0028 -->
<g id="node29" class="node">
<title>node0028</title>
<ellipse fill="none" stroke="#000000" cx="846" cy="-405" rx="36" ry="36"/>
<text text-anchor="middle" x="846" y="-419" font-family="Times,serif" font-size="10.00" fill="#000000">Real_</text>
<text text-anchor="middle" x="846" y="-408" font-family="Times,serif" font-size="10.00" fill="#000000">SISO_</text>
<text text-anchor="middle" x="846" y="-397" font-family="Times,serif" font-size="10.00" fill="#000000">Mathematical_</text>
<text text-anchor="middle" x="846" y="-386" font-family="Times,serif" font-size="10.00" fill="#000000">Function</text>
</g>
<!-- node0028&#45;&gt;node0009 -->
<g id="edge30" class="edge">
<title>node0028&#45;&gt;node0009</title>
<path fill="none" stroke="#000000" d="M836.6318,-439.9179C833.0438,-453.2914 828.8986,-468.7416 825.0914,-482.9322"/>
<polygon fill="#000000" stroke="#000000" points="821.6025,-482.4294 822.3916,-492.9948 828.3634,-484.2434 821.6025,-482.4294"/>
<text text-anchor="middle" x="841.5" y="-462.8" font-family="Times,serif" font-size="14.00" fill="#000000">is a</text>
</g>
<!-- node0029 -->
<g id="node30" class="node">
<title>node0029</title>
<ellipse fill="none" stroke="#000000" cx="756" cy="-405" rx="36" ry="36"/>
<text text-anchor="middle" x="756" y="-402.5" font-family="Times,serif" font-size="10.00" fill="#000000">Polynomial</text>
</g>
<!-- node0029&#45;&gt;node0009 -->
<g id="edge31" class="edge">
<title>node0029&#45;&gt;node0009</title>
<path fill="none" stroke="#000000" d="M771.275,-437.9617C778.0476,-452.5763 786.1004,-469.9535 793.3167,-485.5256"/>
<polygon fill="#000000" stroke="#000000" points="790.3026,-487.3458 797.6829,-494.9473 796.6538,-484.4025 790.3026,-487.3458"/>
<text text-anchor="middle" x="797.5" y="-462.8" font-family="Times,serif" font-size="14.00" fill="#000000">is a</text>
</g>
<!-- node0030 -->
<g id="node31" class="node">
<title>node0030</title>
<ellipse fill="none" stroke="#000000" cx="666" cy="-405" rx="36" ry="36"/>
<text text-anchor="middle" x="666" y="-402.5" font-family="Times,serif" font-size="10.00" fill="#000000">Pole</text>
</g>
<!-- node0030&#45;&gt;node0010 -->
<g id="edge32" class="edge">
<title>node0030&#45;&gt;node0010</title>
<path fill="none" stroke="#000000" d="M669.7951,-440.9073C671.1448,-453.6775 672.6839,-468.2395 674.1121,-481.7528"/>
<polygon fill="#000000" stroke="#000000" points="670.6459,-482.2584 675.1777,-491.8351 677.6072,-481.5226 670.6459,-482.2584"/>
<text text-anchor="middle" x="683.5" y="-462.8" font-family="Times,serif" font-size="14.00" fill="#000000">is a</text>
</g>
<!-- node0031 -->
<g id="node32" class="node">
<title>node0031</title>
<ellipse fill="none" stroke="#000000" cx="576" cy="-405" rx="36" ry="36"/>
<text text-anchor="middle" x="576" y="-402.5" font-family="Times,serif" font-size="10.00" fill="#000000">Affinity</text>
</g>
<!-- node0031&#45;&gt;node0011 -->
<g id="edge33" class="edge">
<title>node0031&#45;&gt;node0011</title>
<path fill="none" stroke="#000000" d="M579.7951,-440.9073C581.1448,-453.6775 582.6839,-468.2395 584.1121,-481.7528"/>
<polygon fill="#000000" stroke="#000000" points="580.6459,-482.2584 585.1777,-491.8351 587.6072,-481.5226 580.6459,-482.2584"/>
<text text-anchor="middle" x="593.5" y="-462.8" font-family="Times,serif" font-size="14.00" fill="#000000">is a</text>
</g>
<!-- node0032 -->
<g id="node33" class="node">
<title>node0032</title>
<ellipse fill="none" stroke="#000000" cx="531" cy="-159" rx="36" ry="36"/>
<text text-anchor="middle" x="531" y="-167.5" font-family="Times,serif" font-size="10.00" fill="#000000">Rational_</text>
<text text-anchor="middle" x="531" y="-156.5" font-family="Times,serif" font-size="10.00" fill="#000000">Transfer_</text>
<text text-anchor="middle" x="531" y="-145.5" font-family="Times,serif" font-size="10.00" fill="#000000">Function</text>
</g>
<!-- node0032&#45;&gt;node0017 -->
<g id="edge34" class="edge">
<title>node0032&#45;&gt;node0017</title>
<path fill="none" stroke="#000000" d="M518.5844,-192.9359C513.42,-207.0519 507.3619,-223.6108 501.8795,-238.5961"/>
<polygon fill="#000000" stroke="#000000" points="498.524,-237.5811 498.3751,-248.1749 505.0979,-239.9862 498.524,-237.5811"/>
<text text-anchor="middle" x="521.5" y="-216.8" font-family="Times,serif" font-size="14.00" fill="#000000">is a</text>
</g>
<!-- node0042 -->
<g id="node43" class="node">
<title>node0042</title>
<ellipse fill="none" stroke="#000000" cx="576" cy="-282" rx="36" ry="36"/>
<text text-anchor="middle" x="576" y="-285" font-family="Times,serif" font-size="10.00" fill="#000000">Rational_</text>
<text text-anchor="middle" x="576" y="-274" font-family="Times,serif" font-size="10.00" fill="#000000">Function</text>
</g>
<!-- node0032&#45;&gt;node0042 -->
<g id="edge35" class="edge">
<title>node0032&#45;&gt;node0042</title>
<path fill="none" stroke="#000000" d="M543.4156,-192.9359C548.58,-207.0519 554.6381,-223.6108 560.1205,-238.5961"/>
<polygon fill="#000000" stroke="#000000" points="556.9021,-239.9862 563.6249,-248.1749 563.476,-237.5811 556.9021,-239.9862"/>
<text text-anchor="middle" x="566.5" y="-216.8" font-family="Times,serif" font-size="14.00" fill="#000000">is a</text>
</g>
<!-- node0033 -->
<g id="node34" class="node">
<title>node0033</title>
<ellipse fill="none" stroke="#000000" cx="1161" cy="-159" rx="36" ry="36"/>
<text text-anchor="middle" x="1161" y="-167.5" font-family="Times,serif" font-size="10.00" fill="#000000">External_</text>
<text text-anchor="middle" x="1161" y="-156.5" font-family="Times,serif" font-size="10.00" fill="#000000">Disturbance_</text>
<text text-anchor="middle" x="1161" y="-145.5" font-family="Times,serif" font-size="10.00" fill="#000000">Quantity</text>
</g>
<!-- node0033&#45;&gt;node0019 -->
<g id="edge36" class="edge">
<title>node0033&#45;&gt;node0019</title>
<path fill="none" stroke="#000000" d="M1187.6717,-183.3008C1208.9353,-202.6744 1238.8575,-229.9368 1261.8677,-250.9017"/>
<polygon fill="#000000" stroke="#000000" points="1259.6345,-253.6019 1269.3838,-257.7496 1264.349,-248.4275 1259.6345,-253.6019"/>
<text text-anchor="middle" x="1245.5" y="-216.8" font-family="Times,serif" font-size="14.00" fill="#000000">is a</text>
</g>
<!-- node0034 -->
<g id="node35" class="node">
<title>node0034</title>
<ellipse fill="none" stroke="#000000" cx="1251" cy="-159" rx="36" ry="36"/>
<text text-anchor="middle" x="1251" y="-167.5" font-family="Times,serif" font-size="10.00" fill="#000000">External_</text>
<text text-anchor="middle" x="1251" y="-156.5" font-family="Times,serif" font-size="10.00" fill="#000000">Reference_</text>
<text text-anchor="middle" x="1251" y="-145.5" font-family="Times,serif" font-size="10.00" fill="#000000">Quantity</text>
</g>
<!-- node0034&#45;&gt;node0019 -->
<g id="edge37" class="edge">
<title>node0034&#45;&gt;node0019</title>
<path fill="none" stroke="#000000" d="M1263.4156,-192.9359C1268.58,-207.0519 1274.6381,-223.6108 1280.1205,-238.5961"/>
<polygon fill="#000000" stroke="#000000" points="1276.9021,-239.9862 1283.6249,-248.1749 1283.476,-237.5811 1276.9021,-239.9862"/>
<text text-anchor="middle" x="1285.5" y="-216.8" font-family="Times,serif" font-size="14.00" fill="#000000">is a</text>
</g>
<!-- node0035 -->
<g id="node36" class="node">
<title>node0035</title>
<ellipse fill="none" stroke="#000000" cx="1341" cy="-159" rx="36" ry="36"/>
<text text-anchor="middle" x="1341" y="-173" font-family="Times,serif" font-size="10.00" fill="#000000">Convergence_</text>
<text text-anchor="middle" x="1341" y="-162" font-family="Times,serif" font-size="10.00" fill="#000000">To_</text>
<text text-anchor="middle" x="1341" y="-151" font-family="Times,serif" font-size="10.00" fill="#000000">Strange_</text>
<text text-anchor="middle" x="1341" y="-140" font-family="Times,serif" font-size="10.00" fill="#000000">Attractor</text>
</g>
<!-- node0035&#45;&gt;node0020 -->
<g id="edge38" class="edge">
<title>node0035&#45;&gt;node0020</title>
<path fill="none" stroke="#000000" d="M1353.4156,-192.9359C1358.58,-207.0519 1364.6381,-223.6108 1370.1205,-238.5961"/>
<polygon fill="#000000" stroke="#000000" points="1366.9021,-239.9862 1373.6249,-248.1749 1373.476,-237.5811 1366.9021,-239.9862"/>
<text text-anchor="middle" x="1375.5" y="-216.8" font-family="Times,serif" font-size="14.00" fill="#000000">is a</text>
</g>
<!-- node0036 -->
<g id="node37" class="node">
<title>node0036</title>
<ellipse fill="none" stroke="#000000" cx="1431" cy="-159" rx="36" ry="36"/>
<text text-anchor="middle" x="1431" y="-173" font-family="Times,serif" font-size="10.00" fill="#000000">Convergence_</text>
<text text-anchor="middle" x="1431" y="-162" font-family="Times,serif" font-size="10.00" fill="#000000">To_</text>
<text text-anchor="middle" x="1431" y="-151" font-family="Times,serif" font-size="10.00" fill="#000000">Limit_</text>
<text text-anchor="middle" x="1431" y="-140" font-family="Times,serif" font-size="10.00" fill="#000000">Cycle</text>
</g>
<!-- node0036&#45;&gt;node0020 -->
<g id="edge39" class="edge">
<title>node0036&#45;&gt;node0020</title>
<path fill="none" stroke="#000000" d="M1418.5844,-192.9359C1413.42,-207.0519 1407.3619,-223.6108 1401.8795,-238.5961"/>
<polygon fill="#000000" stroke="#000000" points="1398.524,-237.5811 1398.3751,-248.1749 1405.0979,-239.9862 1398.524,-237.5811"/>
<text text-anchor="middle" x="1420.5" y="-216.8" font-family="Times,serif" font-size="14.00" fill="#000000">is a</text>
</g>
<!-- node0037 -->
<g id="node38" class="node">
<title>node0037</title>
<ellipse fill="none" stroke="#000000" cx="1521" cy="-159" rx="36" ry="36"/>
<text text-anchor="middle" x="1521" y="-167.5" font-family="Times,serif" font-size="10.00" fill="#000000">Convergence_</text>
<text text-anchor="middle" x="1521" y="-156.5" font-family="Times,serif" font-size="10.00" fill="#000000">To_</text>
<text text-anchor="middle" x="1521" y="-145.5" font-family="Times,serif" font-size="10.00" fill="#000000">Equilibrium</text>
</g>
<!-- node0037&#45;&gt;node0020 -->
<g id="edge40" class="edge">
<title>node0037&#45;&gt;node0020</title>
<path fill="none" stroke="#000000" d="M1494.3283,-183.3008C1473.0647,-202.6744 1443.1425,-229.9368 1420.1323,-250.9017"/>
<polygon fill="#000000" stroke="#000000" points="1417.651,-248.4275 1412.6162,-257.7496 1422.3655,-253.6019 1417.651,-248.4275"/>
<text text-anchor="middle" x="1470.5" y="-216.8" font-family="Times,serif" font-size="14.00" fill="#000000">is a</text>
</g>
<!-- node0038 -->
<g id="node39" class="node">
<title>node0038</title>
<ellipse fill="none" stroke="#000000" cx="1611" cy="-159" rx="36" ry="36"/>
<text text-anchor="middle" x="1611" y="-156.5" font-family="Times,serif" font-size="10.00" fill="#000000">PID_Controller</text>
</g>
<!-- node0038&#45;&gt;node0022 -->
<g id="edge41" class="edge">
<title>node0038&#45;&gt;node0022</title>
<path fill="none" stroke="#000000" d="M1632.3287,-188.1493C1644.5686,-204.8771 1660.0748,-226.0689 1673.2541,-244.0805"/>
<polygon fill="#000000" stroke="#000000" points="1670.7827,-246.6302 1679.5125,-252.6337 1676.4319,-242.4966 1670.7827,-246.6302"/>
<text text-anchor="middle" x="1670.5" y="-216.8" font-family="Times,serif" font-size="14.00" fill="#000000">is a</text>
</g>
<!-- node0039 -->
<g id="node40" class="node">
<title>node0039</title>
<ellipse fill="none" stroke="#000000" cx="1701" cy="-159" rx="36" ry="36"/>
<text text-anchor="middle" x="1701" y="-156.5" font-family="Times,serif" font-size="10.00" fill="#000000">PD_Controller</text>
</g>
<!-- node0039&#45;&gt;node0022 -->
<g id="edge42" class="edge">
<title>node0039&#45;&gt;node0022</title>
<path fill="none" stroke="#000000" d="M1701,-195.2388C1701,-207.7639 1701,-221.9809 1701,-235.229"/>
<polygon fill="#000000" stroke="#000000" points="1697.5001,-235.5952 1701,-245.5952 1704.5001,-235.5952 1697.5001,-235.5952"/>
<text text-anchor="middle" x="1710.5" y="-216.8" font-family="Times,serif" font-size="14.00" fill="#000000">is a</text>
</g>
<!-- node0040 -->
<g id="node41" class="node">
<title>node0040</title>
<ellipse fill="none" stroke="#000000" cx="1791" cy="-159" rx="36" ry="36"/>
<text text-anchor="middle" x="1791" y="-156.5" font-family="Times,serif" font-size="10.00" fill="#000000">PI_Controller</text>
</g>
<!-- node0040&#45;&gt;node0022 -->
<g id="edge43" class="edge">
<title>node0040&#45;&gt;node0022</title>
<path fill="none" stroke="#000000" d="M1769.6713,-188.1493C1757.4314,-204.8771 1741.9252,-226.0689 1728.7459,-244.0805"/>
<polygon fill="#000000" stroke="#000000" points="1725.5681,-242.4966 1722.4875,-252.6337 1731.2173,-246.6302 1725.5681,-242.4966"/>
<text text-anchor="middle" x="1760.5" y="-216.8" font-family="Times,serif" font-size="14.00" fill="#000000">is a</text>
</g>
<!-- node0041 -->
<g id="node42" class="node">
<title>node0041</title>
<ellipse fill="none" stroke="#000000" cx="1881" cy="-159" rx="36" ry="36"/>
<text text-anchor="middle" x="1881" y="-156.5" font-family="Times,serif" font-size="10.00" fill="#000000">P_Controller</text>
</g>
<!-- node0041&#45;&gt;node0022 -->
<g id="edge44" class="edge">
<title>node0041&#45;&gt;node0022</title>
<path fill="none" stroke="#000000" d="M1852.7739,-182.3015C1847.2867,-186.6248 1841.5228,-191.0271 1836,-195 1804.7844,-217.4552 1768.0228,-240.965 1740.7497,-257.8763"/>
<polygon fill="#000000" stroke="#000000" points="1738.5572,-255.1166 1731.8861,-263.3474 1742.234,-261.0732 1738.5572,-255.1166"/>
<text text-anchor="middle" x="1816.5" y="-216.8" font-family="Times,serif" font-size="14.00" fill="#000000">is a</text>
</g>
<!-- node0042&#45;&gt;node0027 -->
<g id="edge45" class="edge">
<title>node0042&#45;&gt;node0027</title>
<path fill="none" stroke="#000000" d="M580.3176,-318.0191C583.6737,-330.3937 589.5917,-343.1053 600,-351 651.6209,-390.1544 830.5536,-345.676 891,-369 894.6753,-370.4182 898.2846,-372.2517 901.7612,-374.3394"/>
<polygon fill="#000000" stroke="#000000" points="899.8448,-377.2685 910.092,-379.9601 903.7599,-371.4657 899.8448,-377.2685"/>
<text text-anchor="middle" x="609.5" y="-339.8" font-family="Times,serif" font-size="14.00" fill="#000000">is a</text>
</g>
<!-- node0043 -->
<g id="node44" class="node">
<title>node0043</title>
<ellipse fill="none" stroke="#000000" cx="756" cy="-282" rx="36" ry="36"/>
<text text-anchor="middle" x="756" y="-285" font-family="Times,serif" font-size="10.00" fill="#000000">Monovariate_</text>
<text text-anchor="middle" x="756" y="-274" font-family="Times,serif" font-size="10.00" fill="#000000">Polynomial</text>
</g>
<!-- node0043&#45;&gt;node0027 -->
<g id="edge46" class="edge">
<title>node0043&#45;&gt;node0027</title>
<path fill="none" stroke="#000000" d="M777.1453,-311.2272C788.6502,-325.1685 803.9952,-340.9573 821,-351 848.6597,-367.3353 862.2619,-354.6465 891,-369 894.3285,-370.6624 897.6395,-372.6016 900.868,-374.7019"/>
<polygon fill="#000000" stroke="#000000" points="898.9862,-377.6576 909.1761,-380.5588 903.0195,-371.9363 898.9862,-377.6576"/>
<text text-anchor="middle" x="830.5" y="-339.8" font-family="Times,serif" font-size="14.00" fill="#000000">is a</text>
</g>
<!-- node0043&#45;&gt;node0029 -->
<g id="edge47" class="edge">
<title>node0043&#45;&gt;node0029</title>
<path fill="none" stroke="#000000" d="M756,-318.2388C756,-330.7639 756,-344.9809 756,-358.229"/>
<polygon fill="#000000" stroke="#000000" points="752.5001,-358.5952 756,-368.5952 759.5001,-358.5952 752.5001,-358.5952"/>
<text text-anchor="middle" x="765.5" y="-339.8" font-family="Times,serif" font-size="14.00" fill="#000000">is a</text>
</g>
<!-- node0044 -->
<g id="node45" class="node">
<title>node0044</title>
<ellipse fill="none" stroke="#000000" cx="666" cy="-282" rx="36" ry="36"/>
<text text-anchor="middle" x="666" y="-279.5" font-family="Times,serif" font-size="10.00" fill="#000000">Linearity</text>
</g>
<!-- node0044&#45;&gt;node0031 -->
<g id="edge48" class="edge">
<title>node0044&#45;&gt;node0031</title>
<path fill="none" stroke="#000000" d="M647.9651,-313.2611C640.6294,-325.3347 631.8121,-339.0837 623,-351 618.1677,-357.5345 612.7375,-364.2541 607.3302,-370.6377"/>
<polygon fill="#000000" stroke="#000000" points="604.4243,-368.6478 600.5398,-378.5049 609.7234,-373.2217 604.4243,-368.6478"/>
<text text-anchor="middle" x="643.5" y="-339.8" font-family="Times,serif" font-size="14.00" fill="#000000">is a</text>
</g>
<!-- node0045 -->
<g id="node46" class="node">
<title>node0045</title>
<ellipse fill="none" stroke="#000000" cx="1476" cy="-36" rx="36" ry="36"/>
<text text-anchor="middle" x="1476" y="-33.5" font-family="Times,serif" font-size="10.00" fill="#000000">Overshooting</text>
</g>
<!-- node0045&#45;&gt;node0037 -->
<g id="edge49" class="edge">
<title>node0045&#45;&gt;node0037</title>
<path fill="none" stroke="#000000" d="M1488.4156,-69.9359C1493.58,-84.0519 1499.6381,-100.6108 1505.1205,-115.5961"/>
<polygon fill="#000000" stroke="#000000" points="1501.9021,-116.9862 1508.6249,-125.1749 1508.476,-114.5811 1501.9021,-116.9862"/>
<text text-anchor="middle" x="1510.5" y="-93.8" font-family="Times,serif" font-size="14.00" fill="#000000">is a</text>
</g>
<!-- node0046 -->
<g id="node47" class="node">
<title>node0046</title>
<ellipse fill="none" stroke="#000000" cx="1566" cy="-36" rx="36" ry="36"/>
<text text-anchor="middle" x="1566" y="-33.5" font-family="Times,serif" font-size="10.00" fill="#000000">Undershooting</text>
</g>
<!-- node0046&#45;&gt;node0037 -->
<g id="edge50" class="edge">
<title>node0046&#45;&gt;node0037</title>
<path fill="none" stroke="#000000" d="M1553.5844,-69.9359C1548.42,-84.0519 1542.3619,-100.6108 1536.8795,-115.5961"/>
<polygon fill="#000000" stroke="#000000" points="1533.524,-114.5811 1533.3751,-125.1749 1540.0979,-116.9862 1533.524,-114.5811"/>
<text text-anchor="middle" x="1555.5" y="-93.8" font-family="Times,serif" font-size="14.00" fill="#000000">is a</text>
</g>
</g>
</svg>
